<?xml version="1.0" encoding="UTF-8" standalone="no"?>
<svg
   xmlns:dc="http://purl.org/dc/elements/1.1/"
   xmlns:cc="http://creativecommons.org/ns#"
   xmlns:rdf="http://www.w3.org/1999/02/22-rdf-syntax-ns#"
   xmlns:svg="http://www.w3.org/2000/svg"
   xmlns="http://www.w3.org/2000/svg"
   xmlns:sodipodi="http://sodipodi.sourceforge.net/DTD/sodipodi-0.dtd"
   xmlns:inkscape="http://www.inkscape.org/namespaces/inkscape"
   inkscape:version="1.0beta1 (fe3e306, 2019-09-17)"
   sodipodi:docname="Elcome_logo_strap_PANTONE.svg"
   viewBox="0 0 662.61066 390.22534"
   height="390.22534"
   width="662.61066"
   xml:space="preserve"
   id="svg10"
   version="1.1">
  <metadata
     id="metadata16">
    <rdf:RDF>
      <cc:Work
         rdf:about="">
        <dc:format>image/svg+xml</dc:format>
        <dc:type
           rdf:resource="http://purl.org/dc/dcmitype/StillImage" />
        <dc:title></dc:title>
      </cc:Work>
    </rdf:RDF>
  </metadata>
  <defs
     id="defs14">
    <clipPath
       id="clipPath30"
       clipPathUnits="userSpaceOnUse">
      <path
         inkscape:connector-curvature="0"
         id="path28"
         d="M 0,292.669 H 496.958 V 0 H 0 Z" />
    </clipPath>
  </defs>
  <sodipodi:namedview
     inkscape:current-layer="g18"
     inkscape:window-maximized="0"
     inkscape:window-y="0"
     inkscape:window-x="26"
     inkscape:cy="214.68777"
     inkscape:cx="191.21532"
     inkscape:zoom="1.979899"
     showgrid="false"
     id="namedview12"
     inkscape:window-height="1061"
     inkscape:window-width="1561"
     inkscape:pageshadow="2"
     inkscape:pageopacity="0"
     guidetolerance="10"
     gridtolerance="10"
     objecttolerance="10"
     borderopacity="1"
     inkscape:document-rotation="0"
     bordercolor="#666666"
     pagecolor="#ffffff" />
  <g
     transform="matrix(1.3333333,0,0,-1.3333333,0,390.22533)"
     inkscape:label="Elcome_logo_strap_PANTONE"
     inkscape:groupmode="layer"
     id="g18">
    <g
       transform="translate(8.2337,96.3413)"
       id="g20">
      <path
         inkscape:connector-curvature="0"
         id="path22"
         style="fill:#58595b;fill-opacity:1;fill-rule:nonzero;stroke:none"
         d="M 0,0 H -4.454 V 2.555 H 7.495 V 0 H 3.04 V -13.124 H 0 Z" />
    </g>
    <g
       id="g24">
      <g
         clip-path="url(#clipPath30)"
         id="g26">
        <g
           transform="translate(18.0384,100.1245)"
           id="g32">
          <path
             inkscape:connector-curvature="0"
             id="path34"
             style="fill:#58595b;fill-opacity:1;fill-rule:nonzero;stroke:none"
             d="M 0,0 H 3.024 V -4.292 L 2.895,-6.527 c 0.956,0.89 2.124,1.738 3.74,1.738 2.547,0 3.651,-1.749 3.651,-4.726 v -7.392 H 7.262 v 7.005 c 0,1.862 -0.525,2.526 -1.714,2.526 -0.986,0 -1.619,-0.477 -2.524,-1.363 v -8.168 H 0 Z" />
        </g>
        <g
           transform="translate(38.6214,90.3159)"
           id="g36">
          <path
             inkscape:connector-curvature="0"
             id="path38"
             style="fill:#58595b;fill-opacity:1;fill-rule:nonzero;stroke:none"
             d="M 0,0 C 0,1.643 -0.726,2.692 -2.27,2.692 -3.555,2.692 -4.68,1.76 -4.92,0 Z m -7.83,-1.191 c 0,3.841 2.692,6.211 5.496,6.211 3.257,0 4.937,-2.36 4.937,-5.638 0,-0.565 -0.065,-1.129 -0.129,-1.417 h -7.362 c 0.26,-1.969 1.549,-3.025 3.344,-3.025 0.972,0 1.817,0.303 2.682,0.83 l 1.017,-1.858 c -1.156,-0.788 -2.635,-1.299 -4.104,-1.299 -3.302,0 -5.881,2.289 -5.881,6.196" />
        </g>
        <g
           transform="translate(48.5902,100.1245)"
           id="g40">
          <path
             inkscape:connector-curvature="0"
             id="path42"
             style="fill:#58595b;fill-opacity:1;fill-rule:nonzero;stroke:none"
             d="M 0,0 H 3.024 V -4.292 L 2.895,-6.527 c 0.956,0.89 2.124,1.738 3.74,1.738 2.547,0 3.651,-1.749 3.651,-4.726 v -7.392 H 7.262 v 7.005 c 0,1.862 -0.525,2.526 -1.714,2.526 -0.986,0 -1.619,-0.477 -2.524,-1.363 v -8.168 H 0 Z" />
        </g>
        <g
           transform="translate(69.5834,89.1245)"
           id="g44">
          <path
             inkscape:connector-curvature="0"
             id="path46"
             style="fill:#58595b;fill-opacity:1;fill-rule:nonzero;stroke:none"
             d="M 0,0 C 0,2.26 -0.932,3.754 -2.568,3.754 -4.205,3.754 -5.136,2.26 -5.136,0 c 0,-2.26 0.931,-3.738 2.568,-3.738 C -0.932,-3.738 0,-2.26 0,0 m -8.24,0 c 0,3.938 2.709,6.211 5.672,6.211 2.964,0 5.672,-2.273 5.672,-6.211 0,-3.922 -2.708,-6.195 -5.672,-6.195 -2.963,0 -5.672,2.273 -5.672,6.195" />
        </g>
        <g
           transform="translate(75.3138,95.0473)"
           id="g48">
          <path
             inkscape:connector-curvature="0"
             id="path50"
             style="fill:#58595b;fill-opacity:1;fill-rule:nonzero;stroke:none"
             d="M 0,0 H 2.475 L 2.7,-1.581 h 0.08 c 0.991,1.021 2.109,1.869 3.616,1.869 1.71,0 2.704,-0.766 3.266,-2.076 1.101,1.164 2.251,2.076 3.774,2.076 2.516,0 3.668,-1.749 3.668,-4.725 v -7.393 h -3.025 v 7.005 c 0,1.862 -0.539,2.526 -1.697,2.526 -0.697,0 -1.46,-0.443 -2.318,-1.363 V -11.83 H 7.04 v 7.005 c 0,1.862 -0.54,2.526 -1.698,2.526 -0.682,0 -1.46,-0.443 -2.318,-1.363 v -8.168 l -3.024,0 z" />
        </g>
        <g
           transform="translate(102.7455,90.3159)"
           id="g52">
          <path
             inkscape:connector-curvature="0"
             id="path54"
             style="fill:#58595b;fill-opacity:1;fill-rule:nonzero;stroke:none"
             d="M 0,0 C 0,1.643 -0.726,2.692 -2.27,2.692 -3.555,2.692 -4.68,1.76 -4.92,0 Z m -7.83,-1.191 c 0,3.841 2.692,6.211 5.496,6.211 3.257,0 4.937,-2.36 4.937,-5.638 0,-0.565 -0.065,-1.129 -0.129,-1.417 h -7.362 c 0.26,-1.969 1.549,-3.025 3.344,-3.025 0.972,0 1.817,0.303 2.682,0.83 l 1.017,-1.858 c -1.156,-0.788 -2.635,-1.299 -4.104,-1.299 -3.302,0 -5.881,2.289 -5.881,6.196" />
        </g>
        <g
           transform="translate(120.2064,89.1245)"
           id="g56">
          <path
             inkscape:connector-curvature="0"
             id="path58"
             style="fill:#58595b;fill-opacity:1;fill-rule:nonzero;stroke:none"
             d="M 0,0 C 0,2.26 -0.932,3.754 -2.568,3.754 -4.205,3.754 -5.136,2.26 -5.136,0 c 0,-2.26 0.931,-3.738 2.568,-3.738 C -0.932,-3.738 0,-2.26 0,0 m -8.24,0 c 0,3.938 2.709,6.211 5.672,6.211 2.964,0 5.672,-2.273 5.672,-6.211 0,-3.922 -2.708,-6.195 -5.672,-6.195 -2.963,0 -5.672,2.273 -5.672,6.195" />
        </g>
        <g
           transform="translate(126.3578,96.062)"
           id="g60">
          <path
             inkscape:connector-curvature="0"
             id="path62"
             style="fill:#58595b;fill-opacity:1;fill-rule:nonzero;stroke:none"
             d="m 0,0 c 0,2.467 1.139,4.351 4.068,4.351 0.903,0 1.706,-0.209 2.234,-0.416 L 5.737,1.687 C 5.322,1.862 4.875,1.959 4.476,1.959 3.536,1.959 3.025,1.389 3.025,0.066 V -12.845 H 0 Z m -1.584,-1.144 1.747,0.129 h 5.111 v -2.392 h -6.858 z" />
        </g>
        <g
           transform="translate(148.7504,91.1206)"
           id="g64">
          <path
             inkscape:connector-curvature="0"
             id="path66"
             style="fill:#e97300;fill-opacity:1;fill-rule:nonzero;stroke:none"
             d="m 0,0 c 0,3.393 -1.509,5.429 -3.863,5.429 -2.355,0 -3.865,-2.036 -3.865,-5.429 0,-3.392 1.51,-5.557 3.865,-5.557 C -1.509,-5.557 0,-3.392 0,0 m -10.848,0 c 0,5.09 2.851,8.063 6.985,8.063 4.134,0 6.984,-2.989 6.984,-8.063 0,-5.09 -2.85,-8.191 -6.984,-8.191 -4.134,0 -6.985,3.101 -6.985,8.191" />
        </g>
        <g
           transform="translate(154.9642,98.896)"
           id="g68">
          <path
             inkscape:connector-curvature="0"
             id="path70"
             style="fill:#e97300;fill-opacity:1;fill-rule:nonzero;stroke:none"
             d="m 0,0 h 3.121 l 4.607,-8.468 1.597,-3.381 h 0.096 c -0.146,1.634 -0.389,3.691 -0.389,5.471 V 0 h 2.896 V -15.679 H 8.807 L 4.2,-7.194 2.604,-3.83 H 2.507 c 0.145,-1.683 0.389,-3.644 0.389,-5.424 v -6.425 H 0 Z" />
        </g>
        <g
           transform="translate(169.9857,90.9917)"
           id="g72">
          <path
             inkscape:connector-curvature="0"
             id="path74"
             style="fill:#e97300;fill-opacity:1;fill-rule:nonzero;stroke:none"
             d="m 0,0 c 0,5.154 3.289,8.192 7.257,8.192 1.986,0 3.573,-0.944 4.584,-2.002 L 10.225,4.234 C 9.426,5.016 8.518,5.558 7.321,5.558 4.907,5.558 3.12,3.489 3.12,0.097 c 0,-3.457 1.624,-5.525 4.138,-5.525 1.355,0 2.409,0.64 3.252,1.563 l 1.616,-1.908 C 10.845,-7.264 9.177,-8.063 7.146,-8.063 3.192,-8.063 0,-5.22 0,0" />
        </g>
        <g
           transform="translate(184.6595,98.896)"
           id="g76">
          <path
             inkscape:connector-curvature="0"
             id="path78"
             style="fill:#e97300;fill-opacity:1;fill-rule:nonzero;stroke:none"
             d="M 0,0 H 9.567 V -2.555 H 3.04 V -6.277 H 8.579 V -8.832 H 3.04 v -4.292 h 6.768 v -2.555 H 0 Z" />
        </g>
        <g
           transform="translate(250.8504,89.6674)"
           id="g80">
          <path
             inkscape:connector-curvature="0"
             id="path82"
             style="fill:#58595b;fill-opacity:1;fill-rule:nonzero;stroke:none"
             d="M 0,0 0.49,1.756 C 0.968,3.385 1.414,5.179 1.827,6.888 H 1.924 C 2.37,5.195 2.816,3.385 3.293,1.756 L 3.779,0 Z M 5.567,-6.45 H 8.785 L 3.737,9.229 H 0.144 L -4.904,-6.45 h 3.105 l 1.137,4.074 h 5.1 z" />
        </g>
        <g
           transform="translate(266.3036,87.3129)"
           id="g84">
          <path
             inkscape:connector-curvature="0"
             id="path86"
             style="fill:#58595b;fill-opacity:1;fill-rule:nonzero;stroke:none"
             d="m 0,0 v 5.342 h -1.662 v 2.263 l 1.824,0.129 0.357,3.199 H 3.024 V 7.734 H 5.979 V 5.342 H 3.024 V 0.018 c 0,-1.375 0.564,-2.009 1.627,-2.009 0.4,0 0.862,0.127 1.197,0.254 L 6.347,-3.952 C 5.708,-4.159 4.874,-4.384 3.856,-4.384 1.063,-4.384 0,-2.617 0,0" />
        </g>
        <g
           transform="translate(274.7079,95.0473)"
           id="g88">
          <path
             inkscape:connector-curvature="0"
             id="path90"
             style="fill:#58595b;fill-opacity:1;fill-rule:nonzero;stroke:none"
             d="M 0,0 H 2.475 L 2.7,-2.096 h 0.08 c 0.85,1.555 2.116,2.384 3.363,2.384 0.627,0 1.011,-0.08 1.363,-0.24 L 6.989,-2.571 C 6.573,-2.46 6.251,-2.38 5.754,-2.38 4.828,-2.38 3.709,-3.001 3.024,-4.737 V -11.83 H 0 Z" />
        </g>
        <g
           transform="translate(283.7411,87.6547)"
           id="g92">
          <path
             inkscape:connector-curvature="0"
             id="path94"
             style="fill:#58595b;fill-opacity:1;fill-rule:nonzero;stroke:none"
             d="M 0,0 V 7.393 H 3.024 V 0.388 c 0,-1.863 0.525,-2.527 1.713,-2.527 0.987,0 1.62,0.444 2.444,1.523 v 8.009 h 3.024 V -4.437 H 7.731 L 7.506,-2.729 H 7.425 C 6.402,-3.943 5.268,-4.726 3.651,-4.726 1.104,-4.726 0,-2.977 0,0" />
        </g>
        <g
           transform="translate(304.4022,90.3159)"
           id="g96">
          <path
             inkscape:connector-curvature="0"
             id="path98"
             style="fill:#58595b;fill-opacity:1;fill-rule:nonzero;stroke:none"
             d="M 0,0 C 0,1.643 -0.726,2.692 -2.27,2.692 -3.555,2.692 -4.68,1.76 -4.92,0 Z m -7.83,-1.191 c 0,3.841 2.692,6.211 5.496,6.211 3.257,0 4.937,-2.36 4.937,-5.638 0,-0.565 -0.065,-1.129 -0.129,-1.417 h -7.362 c 0.26,-1.969 1.549,-3.025 3.344,-3.025 0.972,0 1.817,0.303 2.682,0.83 l 1.017,-1.858 c -1.156,-0.788 -2.635,-1.299 -4.104,-1.299 -3.302,0 -5.881,2.289 -5.881,6.196" />
        </g>
        <g
           transform="translate(322.1844,89.2836)"
           id="g100">
          <path
             inkscape:connector-curvature="0"
             id="path102"
             style="fill:#58595b;fill-opacity:1;fill-rule:nonzero;stroke:none"
             d="m 0,0 c 0,2.279 -0.731,3.562 -2.395,3.562 -0.811,0 -1.555,-0.396 -2.394,-1.237 v -5.287 c 0.775,-0.666 1.553,-0.902 2.205,-0.902 C -1.127,-3.864 0,-2.6 0,0 m -7.813,5.764 h 2.474 l 0.226,-1.229 h 0.08 c 0.973,0.847 2.22,1.517 3.498,1.517 2.925,0 4.64,-2.369 4.64,-6.019 0,-4.051 -2.417,-6.387 -5.023,-6.387 -1.039,0 -2.045,0.462 -2.969,1.278 l 0.098,-1.934 v -3.638 h -3.024 z" />
        </g>
        <g
           transform="translate(333.9432,86.478)"
           id="g104">
          <path
             inkscape:connector-curvature="0"
             id="path106"
             style="fill:#58595b;fill-opacity:1;fill-rule:nonzero;stroke:none"
             d="M 0,0 V 2.456 C -2.964,2.075 -3.945,1.28 -3.945,0.188 c 0,-0.949 0.648,-1.376 1.586,-1.376 0.905,0 1.569,0.444 2.359,1.188 m -6.855,-0.047 c 0,2.52 2.06,3.85 6.855,4.36 -0.05,1.191 -0.562,2.12 -2.054,2.12 -1.112,0 -2.18,-0.492 -3.258,-1.133 l -1.097,2.005 c 1.369,0.852 3.051,1.552 4.923,1.552 2.98,0 4.51,-1.789 4.51,-5.197 V -3.261 H 0.55 l -0.226,1.277 h -0.08 c -1.038,-0.896 -2.219,-1.565 -3.593,-1.565 -2.1,0 -3.506,1.464 -3.506,3.502" />
        </g>
        <g
           transform="translate(340.1678,95.0473)"
           id="g108">
          <path
             inkscape:connector-curvature="0"
             id="path110"
             style="fill:#58595b;fill-opacity:1;fill-rule:nonzero;stroke:none"
             d="M 0,0 H 2.475 L 2.7,-2.096 h 0.08 c 0.85,1.555 2.116,2.384 3.363,2.384 0.627,0 1.011,-0.08 1.363,-0.24 L 6.989,-2.571 C 6.573,-2.46 6.251,-2.38 5.754,-2.38 4.828,-2.38 3.709,-3.001 3.024,-4.737 V -11.83 H 0 Z" />
        </g>
        <g
           transform="translate(349.7635,87.3129)"
           id="g112">
          <path
             inkscape:connector-curvature="0"
             id="path114"
             style="fill:#58595b;fill-opacity:1;fill-rule:nonzero;stroke:none"
             d="m 0,0 v 5.342 h -1.662 v 2.263 l 1.824,0.129 0.357,3.199 H 3.024 V 7.734 H 5.979 V 5.342 H 3.024 V 0.018 c 0,-1.375 0.564,-2.009 1.627,-2.009 0.4,0 0.862,0.127 1.197,0.254 L 6.347,-3.952 C 5.708,-4.159 4.874,-4.384 3.856,-4.384 1.063,-4.384 0,-2.617 0,0" />
        </g>
        <g
           transform="translate(358.1669,95.0473)"
           id="g116">
          <path
             inkscape:connector-curvature="0"
             id="path118"
             style="fill:#58595b;fill-opacity:1;fill-rule:nonzero;stroke:none"
             d="M 0,0 H 2.475 L 2.7,-1.564 h 0.08 c 1.038,1.004 2.239,1.852 3.855,1.852 2.547,0 3.651,-1.749 3.651,-4.725 V -11.83 H 7.262 v 7.005 c 0,1.862 -0.525,2.526 -1.714,2.526 -0.986,0 -1.619,-0.476 -2.524,-1.363 v -8.168 l -3.024,0 z" />
        </g>
        <g
           transform="translate(378.7811,90.3159)"
           id="g120">
          <path
             inkscape:connector-curvature="0"
             id="path122"
             style="fill:#58595b;fill-opacity:1;fill-rule:nonzero;stroke:none"
             d="M 0,0 C 0,1.643 -0.726,2.692 -2.27,2.692 -3.555,2.692 -4.68,1.76 -4.92,0 Z m -7.83,-1.191 c 0,3.841 2.692,6.211 5.496,6.211 3.257,0 4.937,-2.36 4.937,-5.638 0,-0.565 -0.065,-1.129 -0.129,-1.417 h -7.362 c 0.26,-1.969 1.549,-3.025 3.344,-3.025 0.972,0 1.817,0.303 2.682,0.83 l 1.017,-1.858 c -1.156,-0.788 -2.635,-1.299 -4.104,-1.299 -3.302,0 -5.881,2.289 -5.881,6.196" />
        </g>
        <g
           transform="translate(383.9501,95.0473)"
           id="g124">
          <path
             inkscape:connector-curvature="0"
             id="path126"
             style="fill:#58595b;fill-opacity:1;fill-rule:nonzero;stroke:none"
             d="M 0,0 H 2.475 L 2.7,-2.096 h 0.08 c 0.85,1.555 2.116,2.384 3.363,2.384 0.627,0 1.011,-0.08 1.363,-0.24 L 6.989,-2.571 C 6.573,-2.46 6.251,-2.38 5.754,-2.38 4.828,-2.38 3.709,-3.001 3.024,-4.737 V -11.83 H 0 Z" />
        </g>
        <g
           transform="translate(391.8134,84.5786)"
           id="g128">
          <path
             inkscape:connector-curvature="0"
             id="path130"
             style="fill:#58595b;fill-opacity:1;fill-rule:nonzero;stroke:none"
             d="M 0,0 1.389,1.906 C 2.446,1.091 3.453,0.613 4.581,0.613 c 1.206,0 1.76,0.535 1.76,1.28 0,0.92 -1.244,1.332 -2.49,1.812 -1.517,0.575 -3.258,1.49 -3.258,3.459 0,2.104 1.702,3.593 4.379,3.593 1.704,0 3.034,-0.692 4.012,-1.444 L 7.611,7.471 C 6.778,8.079 5.945,8.494 5.054,8.494 3.961,8.494 3.438,7.999 3.438,7.31 3.438,6.437 4.603,6.104 5.865,5.64 7.43,5.058 9.187,4.262 9.187,2.07 9.187,0.001 7.55,-1.649 4.501,-1.649 2.902,-1.649 1.17,-0.962 0,0" />
        </g>
        <g
           transform="translate(403.3876,100.1245)"
           id="g132">
          <path
             inkscape:connector-curvature="0"
             id="path134"
             style="fill:#58595b;fill-opacity:1;fill-rule:nonzero;stroke:none"
             d="M 0,0 H 3.024 V -4.292 L 2.895,-6.527 c 0.956,0.89 2.124,1.738 3.74,1.738 2.547,0 3.651,-1.749 3.651,-4.726 v -7.392 H 7.262 v 7.005 c 0,1.862 -0.525,2.526 -1.714,2.526 -0.986,0 -1.619,-0.477 -2.524,-1.363 v -8.168 H 0 Z" />
        </g>
        <path
           inkscape:connector-curvature="0"
           id="path136"
           style="fill:#58595b;fill-opacity:1;fill-rule:nonzero;stroke:none"
           d="m 416.889,95.047 h 3.024 v -11.83 h -3.024 z m -0.302,3.615 c 0,0.982 0.773,1.66 1.822,1.66 1.048,0 1.822,-0.678 1.822,-1.66 0,-0.967 -0.774,-1.661 -1.822,-1.661 -1.049,0 -1.822,0.694 -1.822,1.661" />
        <g
           transform="translate(431.1014,89.2836)"
           id="g138">
          <path
             inkscape:connector-curvature="0"
             id="path140"
             style="fill:#58595b;fill-opacity:1;fill-rule:nonzero;stroke:none"
             d="m 0,0 c 0,2.279 -0.731,3.562 -2.395,3.562 -0.811,0 -1.555,-0.396 -2.394,-1.237 v -5.287 c 0.775,-0.666 1.553,-0.902 2.205,-0.902 C -1.127,-3.864 0,-2.6 0,0 m -7.813,5.764 h 2.474 l 0.226,-1.229 h 0.08 c 0.973,0.847 2.22,1.517 3.498,1.517 2.925,0 4.64,-2.369 4.64,-6.019 0,-4.051 -2.417,-6.387 -5.023,-6.387 -1.039,0 -2.045,0.462 -2.969,1.278 l 0.098,-1.934 v -3.638 h -3.024 z" />
        </g>
        <g
           transform="translate(21.1224,157.0205)"
           id="g142">
          <path
             inkscape:connector-curvature="0"
             id="path144"
             style="fill:#001689;fill-opacity:1;fill-rule:nonzero;stroke:none"
             d="M 0,0 C 2.29,7.761 7.089,11.542 14.619,11.542 23.012,11.542 27.653,7.862 29.09,0 Z m 14.365,28.413 c -9.7,0 -18.131,-3.555 -25.057,-10.566 C -17.613,10.841 -21.123,1.6 -21.123,-9.62 c 0,-11.388 3.21,-20.423 9.54,-26.856 6.338,-6.441 15.026,-9.705 25.821,-9.705 11.441,0 20.22,2.436 26.095,7.242 l 1.085,0.888 -7.875,15.646 -1.71,-1.726 c -3.406,-3.436 -8.536,-5.179 -15.248,-5.179 -5.326,0 -9.587,1.382 -12.667,4.105 -2.699,2.387 -4.287,5.565 -4.825,9.677 h 48.003 l 0.305,1.366 c 0.925,4.134 1.375,7.168 1.375,9.278 0,9.611 -3.182,17.649 -9.458,23.893 -6.275,6.24 -14.67,9.404 -24.953,9.404" />
        </g>
        <g
           transform="translate(100.4139,134.7299)"
           id="g146">
          <path
             inkscape:connector-curvature="0"
             id="path148"
             style="fill:#001689;fill-opacity:1;fill-rule:nonzero;stroke:none"
             d="M 0,0 V 79.271 L -19.352,74.584 V -7.039 c 0,-13.929 6.814,-16.852 12.53,-16.852 6.595,0 11.341,2.685 14.107,7.979 l 0.957,1.833 -1.967,0.64 C 2.053,-12.067 0,-7.672 0,0" />
        </g>
        <g
           transform="translate(165.9325,133.1655)"
           id="g150">
          <path
             inkscape:connector-curvature="0"
             id="path152"
             style="fill:#001689;fill-opacity:1;fill-rule:nonzero;stroke:none"
             d="m 0,0 c -4.19,-3.671 -8.896,-5.455 -14.385,-5.455 -12.523,0 -18.61,6.482 -18.61,19.818 0,6.659 1.617,11.905 4.806,15.59 3.169,3.663 7.394,5.443 12.915,5.443 5.763,0 10.394,-1.625 13.763,-4.829 L 0.111,29.024 8.75,44.261 7.544,45.187 c -6.12,4.699 -13.412,7.081 -21.676,7.081 -11.886,0 -21.435,-3.532 -28.382,-10.497 -6.945,-6.964 -10.467,-16.186 -10.467,-27.408 0,-11.389 3.231,-20.446 9.603,-26.92 6.379,-6.482 15.152,-9.769 26.075,-9.769 4.795,0 9.03,0.401 12.589,1.193 3.627,0.809 7.878,2.737 12.632,5.732 l 1.301,0.819 -7.462,16.121 z" />
        </g>
        <g
           transform="translate(203.432,163.6997)"
           id="g154">
          <path
             inkscape:connector-curvature="0"
             id="path156"
             style="fill:#001689;fill-opacity:1;fill-rule:nonzero;stroke:none"
             d="m 0,0 c 2.592,3.487 5.991,5.182 10.393,5.182 3.551,0 14.36,0 14.36,-20.585 0,-6.836 -1.346,-12.128 -4.003,-15.729 -2.57,-3.483 -5.958,-5.177 -10.357,-5.177 -3.568,0 -14.424,0 -14.424,20.906 0,6.621 1.356,11.804 4.031,15.403 m 10.393,21.734 c -10.276,0 -18.681,-3.508 -24.979,-10.426 -6.258,-6.871 -9.431,-15.859 -9.431,-26.711 0,-11.183 3.038,-20.302 9.03,-27.105 6.048,-6.87 14.587,-10.352 25.38,-10.352 10.574,0 19.044,3.445 25.175,10.241 6.086,6.743 9.171,15.9 9.171,27.216 0,11.359 -3.032,20.473 -9.013,27.09 -6.027,6.667 -14.55,10.047 -25.333,10.047" />
        </g>
        <g
           transform="translate(329.6307,185.4335)"
           id="g158">
          <path
             inkscape:connector-curvature="0"
             id="path160"
             style="fill:#001689;fill-opacity:1;fill-rule:nonzero;stroke:none"
             d="m 0,0 c -3.747,0 -7.54,-0.716 -11.274,-2.129 -3.097,-1.172 -5.679,-2.703 -7.703,-4.562 C -23.821,-2.25 -30.654,0 -39.32,0 -45.904,0 -51.489,-2.063 -55.957,-6.14 l -2.613,4.86 h -13.701 v -72.034 h 19.351 v 50.523 c 0.927,1.398 2.37,2.727 4.296,3.953 2.051,1.305 3.922,1.966 5.561,1.966 3.326,0 5.792,-0.814 7.543,-2.49 1.728,-1.655 2.569,-3.869 2.569,-6.768 V -73.314 H -13.6 v 50.792 c 0.77,1.399 2.054,2.681 3.825,3.815 1.928,1.235 3.86,1.835 5.906,1.835 6.984,0 10.238,-3.734 10.238,-11.754 v -44.688 h 19.352 v 46.992 c 0,8.068 -2.287,14.536 -6.799,19.226 C 14.392,-2.388 8.025,0 0,0" />
        </g>
        <g
           transform="translate(385.661,157.0205)"
           id="g162">
          <path
             inkscape:connector-curvature="0"
             id="path164"
             style="fill:#001689;fill-opacity:1;fill-rule:nonzero;stroke:none"
             d="M 0,0 C 2.29,7.761 7.09,11.542 14.619,11.542 23.012,11.542 27.652,7.862 29.09,0 Z m 39.317,19.009 c -6.273,6.24 -14.669,9.404 -24.952,9.404 -9.7,0 -18.131,-3.555 -25.057,-10.566 -6.921,-7.006 -10.43,-16.247 -10.43,-27.467 0,-11.388 3.209,-20.423 9.539,-26.856 6.339,-6.441 15.026,-9.705 25.821,-9.705 11.441,0 20.221,2.436 26.096,7.242 l 1.084,0.888 -7.875,15.646 -1.711,-1.726 c -3.405,-3.436 -8.535,-5.179 -15.247,-5.179 -5.325,0 -9.587,1.382 -12.667,4.105 -2.698,2.387 -4.286,5.565 -4.825,9.677 h 48.003 l 0.305,1.366 c 0.925,4.134 1.374,7.168 1.374,9.278 0,9.611 -3.181,17.649 -9.458,23.893" />
        </g>
        <g
           transform="translate(350.6229,4e-4)"
           id="g166">
          <path
             inkscape:connector-curvature="0"
             id="path168"
             style="fill:#009bdf;fill-opacity:1;fill-rule:nonzero;stroke:none"
             d="m 0,0 c -58.433,0 -111.178,34.66 -134.374,88.3 -1.644,3.802 0.105,8.217 3.907,9.86 3.803,1.644 8.217,-0.104 9.861,-3.906 C -99.786,46.109 -52.445,15 0,15 c 72.418,0 131.335,58.916 131.335,131.334 0,72.418 -58.917,131.335 -131.335,131.335 -51.616,0 -98.656,-30.426 -119.839,-77.515 -1.7,-3.778 -6.139,-5.461 -9.916,-3.763 -3.778,1.699 -5.463,6.139 -3.764,9.917 23.6,52.462 76.009,86.361 133.519,86.361 80.689,0 146.335,-65.646 146.335,-146.335 C 146.335,65.646 80.689,0 0,0" />
        </g>
      </g>
    </g>
    <text
       id="text172"
       style="font-variant:normal;font-weight:bold;font-stretch:normal;font-size:12px;font-family:'FS Albert';-inkscape-font-specification:FSAlbert-Bold;writing-mode:lr-tb;fill:#58595b;fill-opacity:1;fill-rule:nonzero;stroke:none"
       transform="matrix(1,0,0,-1,196.1094,93.3037)"><tspan
         id="tspan170"
         y="0"
         x="0">®</tspan></text>
  </g>
</svg>
